<?xml version="1.0" encoding="UTF-8"?>
<svg version="1.1" xmlns="http://www.w3.org/2000/svg" width="480" height="360">
<path d="M0 0 C158.4 0 316.8 0 480 0 C480 118.8 480 237.6 480 360 C321.6 360 163.2 360 0 360 C0 241.2 0 122.4 0 0 Z " fill="#FEFEFE" transform="translate(0,0)"/>
<path d="M0 0 C158.4 0 316.8 0 480 0 C480 118.8 480 237.6 480 360 C321.6 360 163.2 360 0 360 C0 241.2 0 122.4 0 0 Z M172 52 C169.65654447 55.17811092 167.80117976 58.49134347 166 62 C165.51273437 62.91007812 165.02546875 63.82015625 164.5234375 64.7578125 C161.82626134 69.62553166 161.82626134 69.62553166 161 75 C160.14968201 74.98889694 159.29936401 74.97779388 158.42327881 74.96635437 C150.36265869 74.8656689 142.30225341 74.78979155 134.24114609 74.74093914 C130.09798849 74.71497801 125.95535567 74.67983148 121.8125 74.62280273 C117.80537092 74.5679951 113.79874272 74.5384784 109.7912674 74.52561378 C108.27158994 74.51646036 106.75193617 74.49858857 105.23247528 74.47134972 C90.88008817 74.2245739 79.72613976 77.72040044 69.16796875 87.73828125 C61.36381721 95.950493 56.88134339 105.68797474 56.86628723 116.95697021 C56.86402167 117.65711439 56.86175612 118.35725857 56.85942191 119.07861924 C56.8530923 121.42449992 56.85391061 123.77032267 56.85473633 126.11621094 C56.85174414 127.79838129 56.84834147 129.48055096 56.84455872 131.16271973 C56.83571933 135.73312586 56.83338059 140.30351327 56.83274293 144.87392712 C56.83203224 147.73038872 56.82989754 150.58684555 56.82724571 153.44330597 C56.8179916 163.41175132 56.8139108 173.3801833 56.81469727 183.34863281 C56.81529767 192.63485405 56.80475334 201.92101713 56.7889536 211.20722365 C56.775867 219.18358691 56.77051386 227.15993119 56.77115268 235.13630509 C56.77140739 239.8984648 56.76857106 244.66057286 56.75797462 249.42272186 C56.74827514 253.90426825 56.74822716 258.3857138 56.75549126 262.86726379 C56.75653489 264.50871681 56.7541874 266.15017617 56.7481308 267.79161835 C56.74037611 270.03956139 56.74507841 272.28715924 56.75276184 274.53509521 C56.75221707 275.79091274 56.75167231 277.04673027 56.75111103 278.34060287 C57.60446909 290.88746683 63.65953743 302.63837809 73 311 C82.82308777 318.23639422 92.09635938 320.45236193 104.14273071 320.39440918 C105.34040144 320.40050028 106.53807217 320.40659139 107.77203596 320.41286707 C111.07497516 320.42657826 114.37741421 320.42696587 117.68034387 320.4214921 C121.25108747 320.41881148 124.82176858 320.43337322 128.39248657 320.44558716 C135.38072647 320.46660201 142.36888334 320.4711842 149.35715111 320.46939927 C155.04188674 320.46808931 160.72659658 320.47190772 166.41132736 320.47932434 C168.05169499 320.48142366 169.69206261 320.48352126 171.33243024 320.48561716 C172.14902429 320.48666069 172.96561833 320.48770422 173.80695765 320.48877937 C189.23876935 320.50766685 204.67053348 320.50663652 220.10235195 320.49981004 C234.19521536 320.49423936 248.28789671 320.51504235 262.38071759 320.54817051 C276.87349962 320.58197256 291.36619462 320.5970675 305.85901678 320.59245348 C313.98659023 320.59021489 322.11399556 320.59536179 330.24153519 320.62034607 C337.16344545 320.64144392 344.08509547 320.644868 351.00701673 320.62604648 C354.53307579 320.61693929 358.05865078 320.61558891 361.58467102 320.63640213 C386.48317381 321.11668713 386.48317381 321.11668713 408.078125 309.9375 C418.04323562 299.89137223 423.09045089 289.02348216 423.15390015 274.83616638 C423.1582824 274.13784118 423.16266465 273.43951598 423.1671797 272.72002941 C423.18047917 270.3920447 423.18672651 268.06409776 423.19287109 265.73608398 C423.20077911 264.06173027 423.20904849 262.38737824 423.21765137 260.71302795 C423.24379257 255.22406626 423.25917203 249.73509725 423.2734375 244.24609375 C423.2788006 242.35127318 423.28417812 240.45645265 423.28956985 238.56163216 C423.3111878 230.67533623 423.32992167 222.78904229 423.34119225 214.90272427 C423.35741476 203.62843217 423.39056383 192.35448554 423.44759309 181.08032364 C423.48638969 173.13781473 423.50583646 165.19539784 423.51111281 157.25279671 C423.51475321 152.51663966 423.52663415 147.78085174 423.55921555 143.0447979 C423.5894675 138.58359178 423.59554756 134.12297489 423.58383179 129.66168785 C423.58361247 128.0336003 423.59179856 126.40548401 423.60948563 124.77749252 C423.7693222 109.20497974 420.03625822 97.47751923 409.16015625 86.0703125 C400.98518467 78.27984879 391.34609227 74.86577719 380.19018555 74.88647461 C379.52621262 74.88632858 378.86223969 74.88618256 378.17814636 74.8860321 C375.99763651 74.88672517 373.81721356 74.89448901 371.63671875 74.90234375 C370.1192886 74.90421008 368.60185785 74.90563297 367.08442688 74.90663147 C363.10108765 74.91043968 359.1177852 74.92025541 355.13446045 74.93133545 C351.06555682 74.94158611 346.99664721 74.94613691 342.92773438 74.95117188 C334.95180609 74.96187926 326.97590763 74.97893522 319 75 C318.77666237 73.82441277 318.77666237 73.82441277 318.54881287 72.62507629 C316.73411215 63.94501773 310.95329803 53.96590553 304.25 48.25 C291.32125425 39.81321511 279.78756801 39.24782833 264.80859375 39.3359375 C262.77083549 39.33256128 260.7330792 39.32770198 258.69532776 39.32144165 C254.44488161 39.31411001 250.19496428 39.32465663 245.94458008 39.34814453 C240.52565952 39.37664802 235.10797664 39.36019422 229.68910122 39.33028221 C225.48772532 39.31212411 221.28663785 39.31800584 217.08525276 39.33092117 C215.08837801 39.33423076 213.09147613 39.33025542 211.0946331 39.31852341 C196.12169697 39.24982548 183.0520723 40.68373473 172 52 Z " fill="#FEFEFE" transform="translate(0,0)"/>
<path d="M0 0 C1.3310527 -0.01270432 1.3310527 -0.01270432 2.68899536 -0.02566528 C5.60246395 -0.04893034 8.51540087 -0.05005965 11.42895508 -0.04882812 C13.47146308 -0.05593799 15.51396911 -0.06363819 17.55647278 -0.07189941 C21.8324641 -0.08532165 26.10827089 -0.086924 30.38427734 -0.08105469 C35.83343855 -0.07517269 41.28170447 -0.10569902 46.73069286 -0.14617157 C50.94923071 -0.17217141 55.1675568 -0.17491466 59.38616371 -0.17127991 C61.39339757 -0.17296089 63.4006423 -0.18250366 65.40779686 -0.20042419 C79.95414373 -0.3159783 92.69032507 0.68536626 104.32739258 10.56445312 C109.54853474 16.690705 116.76098633 27.15494764 116.76098633 35.41992188 C118.00554092 35.40992912 118.00554092 35.40992912 119.27523804 35.3997345 C127.13051245 35.33938784 134.98570794 35.29382846 142.84116173 35.26448536 C146.87882834 35.24889215 150.91630188 35.22777139 154.95385742 35.19360352 C158.85720314 35.16078166 162.76036426 35.14302126 166.66383743 35.13529015 C168.14604214 35.12978728 169.62823783 35.11904255 171.11036301 35.1027317 C185.68073854 34.94889875 197.55777431 37.46297265 208.51098633 47.66992188 C219.41783731 59.34848401 221.21061526 71.85354548 221.13330078 87.10375977 C221.1357319 88.78666915 221.13945432 90.46957709 221.1443634 92.15248108 C221.15373146 96.70200484 221.14438183 101.25131191 221.13103127 105.80081868 C221.11967457 110.57232631 221.12382749 115.34382392 221.1257782 120.11534119 C221.12665976 128.12551391 221.11560901 136.13560177 221.09716797 144.14575195 C221.07599527 153.39516576 221.07249286 162.64445539 221.07872993 171.89388853 C221.08443216 180.80795745 221.07876825 189.72198282 221.06755638 198.63604546 C221.06292253 202.42252855 221.06203127 206.2089849 221.06414223 209.99547005 C221.06603124 214.45658234 221.05787417 218.91756894 221.04208183 223.37865257 C221.03785371 225.01204025 221.03697848 226.64544072 221.03977203 228.27883148 C221.04301608 230.51557804 221.03385683 232.75195422 221.02168274 234.98866272 C221.01962987 236.23798615 221.017577 237.48730959 221.01546192 238.77449131 C220.13079802 251.44753707 214.01716048 262.85134924 204.76098633 271.41992188 C195.34851036 279.24692748 182.97543767 281.02359977 171.1237793 280.93458557 C169.32002995 280.94500386 169.32002995 280.94500386 167.47984123 280.95563263 C164.18205102 280.97063461 160.88485086 280.96802087 157.58706188 280.9574796 C154.01505443 280.95043383 150.44313544 280.96652581 146.87115479 280.97947693 C139.88945306 281.00103213 132.90791487 281.00101208 125.92619085 280.99285138 C120.24820226 280.98653218 114.57026108 280.98770594 108.89227295 280.99412346 C108.08183151 280.99502511 107.27139007 280.99592677 106.4363898 280.99685575 C104.78960624 280.99870709 103.14282269 281.00056965 101.49603915 281.00244331 C86.0814197 281.01899189 70.666892 281.01032731 55.25227809 280.99345773 C41.17124548 280.97875995 27.09042625 280.99339545 13.00942111 281.02222789 C-1.47670543 281.05166726 -15.96273365 281.06258117 -30.44888878 281.05304569 C-32.08935927 281.05202322 -33.72982977 281.0510286 -35.37030029 281.05006218 C-36.17728461 281.04958579 -36.98426893 281.0491094 -37.81570733 281.04861857 C-43.48193307 281.04646062 -49.14806505 281.05622529 -54.81427002 281.07083321 C-61.72663613 281.08840656 -68.63873028 281.08816768 -75.55108595 281.06548155 C-79.07286673 281.05438503 -82.59416926 281.05107119 -86.11592865 281.06978226 C-89.94500619 281.08577416 -93.77278923 281.07070102 -97.60180664 281.04811096 C-98.69901094 281.05994669 -99.79621525 281.07178242 -100.92666817 281.08397681 C-112.85200931 280.94180867 -123.64959118 276.7735563 -132.23901367 268.41992188 C-141.20778346 258.83386834 -145.3345404 248.30844112 -145.39291382 235.25608826 C-145.39729607 234.55776306 -145.40167833 233.85943786 -145.40619338 233.13995129 C-145.41949284 230.81196658 -145.42574018 228.48401964 -145.43188477 226.15600586 C-145.43979278 224.48165215 -145.44806216 222.80730011 -145.45666504 221.13294983 C-145.48280624 215.64398814 -145.49818571 210.15501912 -145.51245117 204.66601562 C-145.51781427 202.77119505 -145.52319179 200.87637452 -145.52858353 198.98155403 C-145.55020147 191.09525811 -145.56893534 183.20896417 -145.58020592 175.32264614 C-145.59642843 164.04835405 -145.6295775 152.77440742 -145.68660676 141.50024551 C-145.72540336 133.5577366 -145.74485013 125.61531972 -145.75012648 117.67271858 C-145.75376688 112.93656153 -145.76564782 108.20077362 -145.79822922 103.46471977 C-145.82848117 99.00351366 -145.83456123 94.54289676 -145.82284546 90.08160973 C-145.82262614 88.45352217 -145.83081223 86.82540589 -145.8484993 85.1974144 C-145.99418635 71.00345732 -143.25313668 59.03655436 -133.23901367 48.41992188 C-126.32851359 41.44003927 -117.90452483 35.89435712 -107.86001587 35.17941284 C-106.62979706 35.18385406 -105.39957825 35.18829529 -104.13208008 35.19287109 C-103.44845398 35.19257904 -102.76482788 35.19228699 -102.06048584 35.19198608 C-99.8203829 35.19336978 -97.58062038 35.20888504 -95.34057617 35.22460938 C-93.77973614 35.22834293 -92.21889376 35.23118829 -90.65805054 35.23318481 C-86.56452887 35.2407943 -82.47115078 35.2604195 -78.37768555 35.28259277 C-74.19476259 35.30310925 -70.01181627 35.3121989 -65.82885742 35.32226562 C-57.6321772 35.34366812 -49.43561334 35.37777137 -41.23901367 35.41992188 C-41.04432495 34.29360352 -41.04432495 34.29360352 -40.84570312 33.14453125 C-40.01229118 29.40172347 -38.24723816 26.25736604 -36.42651367 22.91992188 C-35.91121094 21.94345703 -35.91121094 21.94345703 -35.38549805 20.94726562 C-32.14984632 14.9373309 -28.86943295 10.47438422 -22.98901367 6.79492188 C-21.6509668 5.94027344 -21.6509668 5.94027344 -20.28588867 5.06835938 C-13.36187116 1.32228836 -7.76761979 -0.0277461 0 0 Z M-14.61401367 30.60742188 C-16.32450035 33.51524923 -17.75704441 36.51303866 -19.15307617 39.58007812 C-19.49677246 40.33200439 -19.84046875 41.08393066 -20.19458008 41.85864258 C-20.88010661 43.37567851 -21.55216019 44.89888978 -22.20922852 46.4284668 C-24.54081741 51.6430577 -26.98976101 54.79529554 -32.23901367 57.41992188 C-34.60739982 57.51596456 -36.94710008 57.55309696 -39.31567383 57.54589844 C-40.0443869 57.54776657 -40.77309998 57.5496347 -41.52389526 57.55155945 C-43.10954051 57.55556781 -44.69519156 57.55763869 -46.28084183 57.55802155 C-49.65759231 57.56143629 -53.03415012 57.58280319 -56.41083336 57.60325241 C-62.69879974 57.64125394 -68.98656392 57.67254306 -75.2746582 57.67041016 C-79.64741349 57.6696207 -84.01946808 57.69309047 -88.39204025 57.73229218 C-90.05446595 57.74272254 -91.71697282 57.74429809 -93.3794136 57.73664093 C-104.7204566 57.43663034 -104.7204566 57.43663034 -114.81161499 62.00189209 C-120.81894302 67.96979032 -122.35664683 72.77226881 -122.38618469 81.18707275 C-122.38986138 81.86679917 -122.39353807 82.54652559 -122.39732617 83.24684978 C-122.40833576 85.52362369 -122.41220219 87.80035192 -122.41601562 90.07714844 C-122.4222823 91.71005904 -122.42892928 93.34296822 -122.43592834 94.97587585 C-122.45694566 100.3374228 -122.46732809 105.69896996 -122.47729492 111.06054688 C-122.48134325 112.907804 -122.4854602 114.75506098 -122.489645 116.60231781 C-122.50869102 125.28091318 -122.52292367 133.95950006 -122.53125697 142.63811231 C-122.54102962 152.64982168 -122.5673523 162.66130997 -122.60775787 172.67294145 C-122.63793261 180.41576011 -122.65272711 188.15851543 -122.65603799 195.90139174 C-122.65838678 200.52390212 -122.66732512 205.14617615 -122.69249916 209.76862335 C-122.71580893 214.11892826 -122.72000152 218.46884168 -122.70973778 222.81919289 C-122.70924302 224.41228094 -122.71554567 226.00538847 -122.72929382 227.59841728 C-122.80598227 237.01428725 -122.77542387 244.34367016 -116.20385742 251.69726562 C-115.20032227 252.51904297 -115.20032227 252.51904297 -114.17651367 253.35742188 C-113.50491211 253.92332031 -112.83331055 254.48921875 -112.14135742 255.07226562 C-108.92515192 257.35068636 -106.19888082 257.54631146 -102.37879658 257.55414295 C-101.3710557 257.5586008 -100.36331483 257.56305864 -99.32503635 257.56765157 C-97.65960348 257.56737503 -97.65960348 257.56737503 -95.96052551 257.5670929 C-94.78346013 257.57076958 -93.60639475 257.57444627 -92.39366072 257.57823437 C-89.12082256 257.58736287 -85.84801387 257.59197127 -82.57516515 257.59462368 C-79.04741662 257.59852655 -75.51968262 257.60810491 -71.99194336 257.61683655 C-63.46954061 257.63660166 -54.94713668 257.64666731 -46.42471674 257.65556434 C-42.41157375 257.65994723 -38.39843209 257.66531405 -34.38529015 257.67055321 C-21.04498093 257.68756567 -7.70467253 257.70205986 5.63564587 257.70930195 C9.09775481 257.71121185 12.55986374 257.71313218 16.02197266 257.71508789 C16.88246534 257.71557163 17.74295802 257.71605537 18.62952624 257.71655377 C32.56903638 257.72485412 46.50846072 257.75019103 60.4479334 257.78266857 C74.75854577 257.81573904 89.06911454 257.8337507 103.37976533 257.83694619 C111.414971 257.83911132 119.45005153 257.84786033 127.48521996 257.87340736 C134.32838316 257.89511424 141.17139084 257.9031649 148.01458456 257.89344058 C151.50525241 257.88889576 154.99559938 257.89079218 158.48622322 257.91020203 C162.27361381 257.92784886 166.06018931 257.92084898 169.84757996 257.90766907 C170.94671492 257.91863831 172.04584989 257.92960756 173.17829198 257.94090921 C180.64507313 257.87814184 185.97193802 256.68962186 191.78442383 251.67382812 C192.23043945 251.11566406 192.67645508 250.5575 193.13598633 249.98242188 C193.5974707 249.42683594 194.05895508 248.87125 194.53442383 248.29882812 C197.48856291 243.77353864 198.01265258 239.88270938 198.02168274 234.52578735 C198.02550829 233.84450095 198.02933383 233.16321454 198.03327531 232.46128309 C198.04356945 230.18520982 198.03962004 227.90939051 198.03564453 225.63330078 C198.03999302 223.99861925 198.04517663 222.36393977 198.0511322 220.72926331 C198.06451942 216.29325746 198.06510113 211.85733683 198.0625689 207.42131472 C198.0614989 203.71609225 198.06638338 200.01088701 198.07117432 196.30566823 C198.08226878 187.56281519 198.08270741 178.82000511 198.07666016 170.07714844 C198.07062099 161.06293964 198.08293007 152.04888696 198.10423023 143.0347048 C198.12185427 135.29102415 198.12784627 127.54739315 198.12459248 119.80369318 C198.1227806 115.1807273 198.12540629 110.55787277 198.13930702 105.93492508 C198.15189363 101.58628441 198.1499334 97.23788679 198.13689613 92.8892498 C198.13453253 91.29575328 198.13725731 89.7022396 198.14551926 88.10876274 C198.15600728 85.92823603 198.14787047 83.74852174 198.13520813 81.56802368 C198.13537587 80.3494549 198.13554361 79.13088612 198.13571644 77.87539101 C197.48357723 71.86187127 195.07100823 66.72994377 190.76098633 62.41992188 C183.66162772 57.55145275 176.46877089 57.86053356 168.17827797 57.90350151 C165.71012031 57.91621731 163.24306683 57.90476648 160.77494812 57.88746643 C156.42855209 57.86086559 152.08243054 57.8551673 147.73596191 57.85656738 C140.76965612 57.85880314 133.80368819 57.84464339 126.83751488 57.80098152 C124.4105627 57.79116247 121.98414613 57.79984709 119.5572052 57.80967712 C118.06694184 57.80353259 116.57668138 57.79662074 115.08642578 57.78881836 C113.78929153 57.78978012 112.49215729 57.79074188 111.15571594 57.79173279 C107.49561821 57.39085719 105.66413162 56.64008141 102.76098633 54.41992188 C99.90643594 50.56242135 97.82482106 46.61098155 95.84301758 42.25585938 C95.32831909 41.12881592 95.32831909 41.12881592 94.80322266 39.97900391 C94.11879477 38.46264903 93.4475809 36.94024652 92.79101562 35.41162109 C90.77922989 30.9128966 88.98699165 28.21016898 84.76098633 25.41992188 C83.77098633 24.75992188 82.78098633 24.09992187 81.76098633 23.41992188 C78.95403786 23.21489406 76.24549005 23.12622369 73.4375 23.12939453 C72.58838547 23.12267731 71.73927094 23.11596008 70.86442566 23.10903931 C68.05254286 23.09001525 65.24089826 23.08613268 62.42895508 23.08398438 C60.4746338 23.07755873 58.5203135 23.07083055 56.56599426 23.06381226 C52.46617402 23.05182791 48.36643809 23.04813254 44.26660156 23.04931641 C39.01739881 23.04951948 33.76873816 23.0222342 28.51966381 22.98777199 C24.48156765 22.96551325 20.44360205 22.96147858 16.40545082 22.96253586 C14.4705856 22.96017771 12.5357169 22.95134214 10.60091209 22.93587112 C7.89110996 22.91623508 5.18247796 22.92204001 2.47265625 22.93408203 C1.67607605 22.92284302 0.87949585 22.911604 0.05877686 22.90002441 C-6.6561116 22.97570176 -10.5205892 25.11361535 -14.61401367 30.60742188 Z " fill="#040404" transform="translate(202.239013671875,39.580078125)"/>
<path d="M0 0 C20.58484014 -0.62439339 41.1979409 5.81961327 56.7421875 19.62890625 C58.35091272 21.14491677 59.95546812 22.66537149 61.5546875 24.19140625 C62.17085937 24.72121094 62.78703125 25.25101563 63.421875 25.796875 C76.1733499 37.22619236 84.03810023 56.80826041 84.9609375 73.6171875 C85.59417753 97.6660557 79.11000046 118.29746237 62.5546875 136.19140625 C48.7747797 150.55520845 29.69746708 159.7475022 9.7734375 160.375 C-11.05571658 160.77302186 -29.15032411 156.86480345 -45.4453125 143.19140625 C-46.28320312 142.52625 -47.12109375 141.86109375 -47.984375 141.17578125 C-58.10656135 132.71451093 -65.91674606 121.58027016 -70.4453125 109.19140625 C-70.909375 107.99773437 -71.3734375 106.8040625 -71.8515625 105.57421875 C-78.75952945 86.34105906 -77.20276963 65.30338499 -68.65893555 46.92260742 C-65.32187765 40.07302414 -61.61420139 33.83299671 -56.4453125 28.19140625 C-55.62160156 27.28777344 -54.79789063 26.38414062 -53.94921875 25.453125 C-48.00474304 19.22196536 -41.96510998 14.37395054 -34.4453125 10.19140625 C-33.63449219 9.73121094 -32.82367188 9.27101563 -31.98828125 8.796875 C-21.9238546 3.4150895 -11.33525789 0.62973655 0 0 Z " fill="#FDFDFD" transform="translate(235.4453125,113.80859375)"/>
<path d="M0 0 C20.58484014 -0.62439339 41.1979409 5.81961327 56.7421875 19.62890625 C58.35091272 21.14491677 59.95546812 22.66537149 61.5546875 24.19140625 C62.17085937 24.72121094 62.78703125 25.25101563 63.421875 25.796875 C76.1733499 37.22619236 84.03810023 56.80826041 84.9609375 73.6171875 C85.59417753 97.6660557 79.11000046 118.29746237 62.5546875 136.19140625 C48.7747797 150.55520845 29.69746708 159.7475022 9.7734375 160.375 C-11.05571658 160.77302186 -29.15032411 156.86480345 -45.4453125 143.19140625 C-46.28320312 142.52625 -47.12109375 141.86109375 -47.984375 141.17578125 C-58.10656135 132.71451093 -65.91674606 121.58027016 -70.4453125 109.19140625 C-70.909375 107.99773437 -71.3734375 106.8040625 -71.8515625 105.57421875 C-78.75952945 86.34105906 -77.20276963 65.30338499 -68.65893555 46.92260742 C-65.32187765 40.07302414 -61.61420139 33.83299671 -56.4453125 28.19140625 C-55.62160156 27.28777344 -54.79789063 26.38414062 -53.94921875 25.453125 C-48.00474304 19.22196536 -41.96510998 14.37395054 -34.4453125 10.19140625 C-33.63449219 9.73121094 -32.82367188 9.27101563 -31.98828125 8.796875 C-21.9238546 3.4150895 -11.33525789 0.62973655 0 0 Z M-40.4453125 44.19140625 C-50.95444756 57.12129271 -54.00406974 71.98731047 -52.4453125 88.19140625 C-50.52927931 101.80780607 -44.14117239 112.64471344 -34.4453125 122.19140625 C-33.78402344 122.85140625 -33.12273437 123.51140625 -32.44140625 124.19140625 C-20.64863509 135.24564022 -6.14664369 138.07392586 9.53125 137.60546875 C24.80062621 136.68339096 37.78598219 129.03994207 48.07421875 118.05078125 C59.42693382 104.96387191 62.59590301 89.39161359 61.76806641 72.51464844 C60.41655889 57.79960779 51.42227893 44.52069377 40.34375 35.19140625 C13.46777481 15.91899827 -18.37496326 20.6686449 -40.4453125 44.19140625 Z " fill="#050505" transform="translate(235.4453125,113.80859375)"/>
<path d="M0 0 C-1 3 -1 3 -3.3125 4.375 C-6.31639952 6.19131134 -7.94543592 8.18448626 -10 11 C-10.99 10.67 -11.98 10.34 -13 10 C-11.73232923 8.70522938 -10.46073776 7.41429661 -9.1875 6.125 C-8.47980469 5.40570313 -7.77210937 4.68640625 -7.04296875 3.9453125 C-2.89959839 0 -2.89959839 0 0 0 Z " fill="#181818" transform="translate(79,81)"/>
<path d="M0 0 C0.66 0.33 1.32 0.66 2 1 C2 1.66 2 2.32 2 3 C1.01 3 0.02 3 -1 3 C-1.33 3.99 -1.66 4.98 -2 6 C-3.32 5.67 -4.64 5.34 -6 5 C-4.02 3.35 -2.04 1.7 0 0 Z " fill="#1F1F1F" transform="translate(178,47)"/>
</svg>
