<?xml version="1.0" encoding="UTF-8"?>
<!DOCTYPE svg PUBLIC "-//W3C//DTD SVG 1.1//EN" "http://www.w3.org/Graphics/SVG/1.1/DTD/svg11.dtd">
<svg xmlns="http://www.w3.org/2000/svg" version="1.1" width="512px" height="512px" style="shape-rendering:geometricPrecision; text-rendering:geometricPrecision; image-rendering:optimizeQuality; fill-rule:evenodd; clip-rule:evenodd" xmlns:xlink="http://www.w3.org/1999/xlink">
<g><path style="opacity:0.981" fill="#000000" d="M 142.5,18.5 C 147.449,17.9589 152.116,18.7922 156.5,21C 195.695,59.861 234.528,99.0276 273,138.5C 276.407,145.225 275.74,151.558 271,157.5C 263.833,164.667 256.667,171.833 249.5,179C 243.377,183.161 237.043,183.495 230.5,180C 217.833,167.333 205.167,154.667 192.5,142C 186.623,138.622 181.79,139.789 178,145.5C 177.667,217.167 177.333,288.833 177,360.5C 175.5,367.333 171.333,371.5 164.5,373C 153.167,373.667 141.833,373.667 130.5,373C 124.236,371.957 120.07,368.457 118,362.5C 117.991,289.776 117.324,217.11 116,144.5C 112.458,140.422 108.291,139.255 103.5,141C 91.1667,153.333 78.8333,165.667 66.5,178C 60.2614,183.064 53.5948,183.73 46.5,180C 38.3333,171.833 30.1667,163.667 22,155.5C 18.6667,149.5 18.6667,143.5 22,137.5C 61.7563,97.2426 101.923,57.5759 142.5,18.5 Z"/></g>
<g><path style="opacity:0.982" fill="#000000" d="M 346.5,136.5 C 357.838,136.333 369.172,136.5 380.5,137C 386.764,138.043 390.93,141.543 393,147.5C 393.009,220.89 393.676,294.224 395,367.5C 398.542,371.578 402.709,372.745 407.5,371C 420.862,357.304 434.529,343.971 448.5,331C 454.015,328.762 459.349,329.095 464.5,332C 473.303,339.802 481.803,347.969 490,356.5C 492.21,362.647 491.876,368.647 489,374.5C 450.5,413 412,451.5 373.5,490C 367.5,493.333 361.5,493.333 355.5,490C 316.333,450.833 277.167,411.667 238,372.5C 234.353,365.729 235.02,359.395 240,353.5C 248.221,345.279 256.387,337.113 264.5,329C 270.015,326.762 275.349,327.095 280.5,330C 293.167,342.667 305.833,355.333 318.5,368C 324.377,371.378 329.21,370.211 333,364.5C 333.333,292.833 333.667,221.167 334,149.5C 335.682,142.653 339.849,138.32 346.5,136.5 Z"/></g>
</svg>
